<svg xmlns="http://www.w3.org/2000/svg" width="692.002" height="552.597" viewBox="0 0 692.002 552.597">
  <g id="Grupo_2" data-name="Grupo 2" transform="translate(9842.002 14091.999)">
    <g id="Grupo_1" data-name="Grupo 1" transform="translate(-9842.002 -14091.999)">
      <path id="Trazado_1" data-name="Trazado 1" d="M1515.037,63.934a19.87,19.87,0,0,0-13.789,5.6c-3.789,3.686-5.785,9.586-8.061,14.264-13.3,27.382-24.4,56.049-35.179,84.5q-6.081,16.03-11.724,32.227a1140.728,1140.728,0,0,0-46.572,177.222,499.876,499.876,0,0,0-6.96,59.122,292.447,292.447,0,0,0,2.929,59.884c.636,4.231,1.628,8.411,2.529,12.957l.079-.017a19.058,19.058,0,0,0,37.45-5.005c0-5.246-1.272-10.544-1.926-15.738a266.427,266.427,0,0,1-2.275-43.6q.136-3.526.4-7.052c.167-2.247.63-4.575.63-6.823,2.385-21.643,5.127-43.292,8.984-64.712,3.624-20.141,8.554-40.064,13.508-59.936a1024.536,1024.536,0,0,1,33.6-108.107c12.051-32.536,24.275-65,39.433-96.274,2.013-4.151,4.587-8.485,5.906-13.038a20.316,20.316,0,0,0,.866-5.653A19.823,19.823,0,0,0,1515.037,63.934Z" transform="translate(-1392.32 -18.549)" fill="#ffa513"/>
      <path id="Trazado_2" data-name="Trazado 2" d="M1696.774,101.759c-7.889-2.23-14.866-.361-20.135,5.894-3.078,3.658-5.378,8-7.935,12.086-18.513,29.544-36.757,59.259-55.561,88.614-20.469,31.946-41.378,63.605-64.879,93.464a197.784,197.784,0,0,1-46.87,43.063,69.331,69.331,0,0,1-39.823,11.639c-6.169-.08-12.344-2.024-16.878-6.33-4.822-4.575-7.867-11.243-10.441-17.257-2.121-4.959-3.458-10.87-7-15.067a19.32,19.32,0,0,0-34.078,12.476c0,6.851,3.366,14.012,6,20.221a102.78,102.78,0,0,0,7.562,14.74,64.45,64.45,0,0,0,23.6,22.56,71.444,71.444,0,0,0,27.2,8.038,83.456,83.456,0,0,0,10.027.321c29.407-.808,58.045-17.011,79.275-36.469a363.13,363.13,0,0,0,55.562-64.414c31.114-46,61.524-92.472,90.4-139.921q7.8-12.823,15.033-25.983C1713.934,118.328,1708.58,105.1,1696.774,101.759Z" transform="translate(-1388.282 156.206)" fill="#ff224d"/>
      <path id="Trazado_3" data-name="Trazado 3" d="M1499.654,97.526" transform="translate(-884.275 140.452)" fill="none" stroke="#fff" stroke-miterlimit="10" stroke-width="1"/>
      <path id="Trazado_4" data-name="Trazado 4" d="M1711.413,324.882a34.916,34.916,0,0,0-2.339-5.338c-2-3.761-4.49-7.35-6.473-11.019-29.516-54.552-61.324-107.717-96.073-159.122-14.052-20.8-28.981-40.775-47.421-57.969-13.192-12.3-27.21-23.271-44.094-30.169-12.292-5.022-24.969-6.163-38.012-4.587-15.9,1.926-28.844,9.77-40.4,20.325a103.022,103.022,0,0,0-16.551,20.067c-1.433,2.2-2.741,4.478-4.134,6.7a47.211,47.211,0,0,0-3.813,6.937,19.4,19.4,0,0,0,28.478,23.742,22.178,22.178,0,0,0,7.574-9.064,64.982,64.982,0,0,1,6.908-10.819,85.53,85.53,0,0,1,8.715-9.724c1.972-1.892,4.047-3.652,6.163-5.384,7.282-5.779,15.354-7.786,24.51-5.08a70.632,70.632,0,0,1,26.287,13.995c17.785,15.176,33.729,32.112,46.52,51.68,20.749,31.745,41.44,63.559,61.185,95.941q23.72,38.906,45.328,79c4.173,7.734,9.878,15,19.43,15C1706.046,350,1715.472,337.116,1711.413,324.882Z" transform="translate(-1305.736 -56.018)" fill="#fae319"/>
      <path id="Trazado_5" data-name="Trazado 5" d="M1721.933,356.615c-2.9,0-5.6,1.02-8.382,1.686a50.546,50.546,0,0,1-32.806-3.451,141.944,141.944,0,0,1-44.61-31.98,482.834,482.834,0,0,1-44.88-56.467c-30.421-44.542-59.059-90.236-87.02-136.355-4.088-6.742-12.481-20.594-12.486-20.588a19.047,19.047,0,1,0-31.843,20.9c2.643,4.644,5.693,10.245,7.987,14.2,20.806,35.919,43.424,70.7,66.173,105.412,14.522,22.148,28.982,44.313,44.9,65.514,17.39,23.157,37.112,43.888,60.86,60.584,20.794,14.626,43.647,22.859,69.4,21.523a62.94,62.94,0,0,0,18.73-3.646c7.774-2.941,13.244-9.506,13.244-18.066A19.259,19.259,0,0,0,1721.933,356.615Z" transform="translate(-1088.077 154.87)" fill="#9bdc28"/>
      <path id="Trazado_6" data-name="Trazado 6" d="M1593.036,353.851c-1.341-14.941-2.448-29.911-4.2-44.8a680.009,680.009,0,0,0-12.883-71.873c-3.807-16.661-8.318-33.161-12.584-49.719-5.522-21.414-12.471-42.421-19.6-63.341-4.891-14.35-9.311-40.414-28.226-41.515-10.767-.625-20.554,8.789-19.528,19.528,1,10.429,6.038,21.162,9.392,31.086,4.11,12.149,8.2,24.309,12.023,36.556,16.115,51.686,28.328,104.226,34.422,158.13,2.311,20.445,3.371,40.815,1.651,61.335a123.582,123.582,0,0,1-4.9,26.746c-2.465,7.843-5.544,15.9-11.936,21.385a15.411,15.411,0,0,1-1.589,1.106c-1,.665-2,1.313-3.009,1.955-1.113.7-2.219,1.41-3.371,2.053s-2.38,1.084-3.521,1.72a19.238,19.238,0,0,0-5.046,4.071,19.066,19.066,0,0,0-4.764,12.132c-.006.161-.006.327-.006.487a19.138,19.138,0,0,0,19.138,19.138,24.919,24.919,0,0,0,8.5-1.76,68.326,68.326,0,0,0,8.181-3.583c1.64-.86,3.239-1.795,4.781-2.809a53.026,53.026,0,0,0,6.037-4.621c.74-.659,1.468-1.342,2.173-2.041a83.386,83.386,0,0,0,21.706-36.154,210.239,210.239,0,0,0,7.3-40.9A193.208,193.208,0,0,0,1593.036,353.851Z" transform="translate(-901.869 69.68)" fill="#2db1e1"/>
      <path id="Trazado_7" data-name="Trazado 7" d="M1716.605,222.925c-.154-.705-.339-1.4-.55-2.093-.607-2.007-1.491-3.893-2.213-5.854-.39-1.049-.762-2.1-1.146-3.159q-1.178-3.225-2.374-6.438-2.4-6.424-4.878-12.825t-5.057-12.751q-2.573-6.355-5.229-12.676t-5.418-12.6q-2.751-6.287-5.6-12.521t-5.8-12.441q-2.949-6.2-6-12.355-1.591-3.208-3.2-6.393c-6.622-13.083-15.021-24.871-26.023-34.646-21.981-19.528-46.9-24.619-74.7-14.815-13.106,4.615-24.568,12.092-35.266,20.818-14.477,11.811-26.889,25.651-38.2,40.385-11.192,14.585-21.557,29.807-32.158,44.84a31.178,31.178,0,0,0-5.046,13.995c-1.606,11.725,9.667,22.182,21.782,20.325,7.527-1.147,12.458-5.923,16.11-12.046a375.839,375.839,0,0,1,51.072-66.8,107.331,107.331,0,0,1,34.916-24.739c11.4-4.982,22.056-3.526,31.671,4.461a86.074,86.074,0,0,1,23.008,28.993c4.627,9.586,9.179,19.218,13.456,28.965q2.813,6.381,5.516,12.8,2.727,6.45,5.372,12.934t5.206,13q2.563,6.51,5.051,13.055t4.907,13.106c.458,1.25.917,2.494,1.376,3.744.676,1.863,1.02,3.841,1.788,5.67a19.746,19.746,0,0,0,2.472,4.266,19.794,19.794,0,0,0,35.15-16.2Z" transform="translate(-1083.333 -53.741)" fill="#8362e7"/>
    </g>
  </g>
</svg>
